<svg xmlns="http://www.w3.org/2000/svg" width="96" height="96"><g fill="none" stroke="white" stroke-width="4" stroke-linecap="round" stroke-miterlimit="10"><path stroke-linejoin="round" d="M15.824 26H7v45h4.45M11 26V2"/><path d="M14.041 37c0-19.33 15.67-35 35-35h-.082c19.33 0 35 15.67 35 35"/><path stroke-linejoin="round" d="M14 37l-3 40 29 17h18l29.375-17L84 37"/><path d="M14.275 33h69.443"/><path stroke-linejoin="round" d="M58 94V52s12.29-4.046 20.234-7.116L77.532 39H20l-.468 5.884C27.476 47.954 40 52 40 52v42"/><path d="M12.997 50.392C25.478 56.896 34 69.953 34 85v5.483M85.003 51.1C72.522 57.604 64 69.953 64 85v5.528"/><path stroke-linejoin="round" d="M59.333 15.333l5.25 6.25M55 19v5"/></g></svg>